<svg width="250" height="273" viewBox="0 0 250 273" fill="none" xmlns="http://www.w3.org/2000/svg">
<path d="M125 22.6011L233.253 85.2008V210.4L125 273L16.7468 210.4V85.2008L125 22.6011Z" fill="#009ED8"/>
<path d="M74.7684 180.223V68.7181C86.4169 54.2125 97.0703 62.6741 100.941 68.7181V120.614L221.268 0.564277C237.748 -2.81213 240.308 9.78683 239.528 16.5084L74.7684 180.223Z" fill="#0ACF83"/>
<path d="M74.7684 237.516V202.212L103.778 174.718L120.934 191.277L74.7684 237.516Z" fill="white"/>
<path d="M189.888 235.542L115.631 161.284L185.816 90.3628C205.779 88.1134 205.779 101.506 203.284 108.484L150.689 161.284L212.409 222.507L189.888 235.542Z" fill="white"/>
</svg>
